# xmcd CD database file
#
# Track frame offsets:
#	150
#	56086
#	92893
#	130270
#	160165
#	189096
#	230583
#
# Disc length: 3577 seconds
#
# Revision: 0
# Processed by: cddbd v1.4PL0 Copyright (c) Steve Scherf et al.
# Submitted via: CDex 1.51
#
DISCID=560df707
DTITLE=Keith Jarret, Gary Peacock, Jack DeJohnette - Whisper Not Disc 2
DYEAR=2000
DGENRE=Jazz
TTITLE0=What Is This Thing Called Love
TTITLE1=Conception 
TTITLE2=Prelude To A Kiss 
TTITLE3=Hallucinations
TTITLE4=All My Tomorrows
TTITLE5=Poincana
TTITLE6=When I Fall In Love
EXTD=YEAR: 2000
EXTT0=
EXTT1=
EXTT2=
EXTT3=
EXTT4=
EXTT5=
EXTT6=
PLAYORDER=
